<svg width="134" height="21" viewBox="0 0 134 21" fill="none" xmlns="http://www.w3.org/2000/svg">
<path d="M0.960385 1.09091L7.8574 13.3153V20H11.8276V13.3153L18.7246 1.09091H14.2466L9.93482 9.23438H9.75016L5.43837 1.09091H0.960385ZM24.7647 20.277C29.0672 20.277 31.7448 17.3317 31.7448 12.9645C31.7448 8.5696 29.0672 5.63352 24.7647 5.63352C20.4621 5.63352 17.7846 8.5696 17.7846 12.9645C17.7846 17.3317 20.4621 20.277 24.7647 20.277ZM24.7831 17.2301C22.7981 17.2301 21.7824 15.4112 21.7824 12.9368C21.7824 10.4624 22.7981 8.63423 24.7831 8.63423C26.7313 8.63423 27.7469 10.4624 27.7469 12.9368C27.7469 15.4112 26.7313 17.2301 24.7831 17.2301ZM43.8648 13.9616C43.874 15.8636 42.5722 16.8608 41.1595 16.8608C39.673 16.8608 38.7128 15.8175 38.7036 14.1463V5.81818H34.7703V14.848C34.7796 18.1626 36.7185 20.1847 39.5715 20.1847C41.7043 20.1847 43.2369 19.0859 43.874 17.424H44.0217V20H47.798V5.81818H43.8648V13.9616ZM68.8624 10.5455C68.8624 4.35938 65.0215 0.832386 60.008 0.832386C54.9668 0.832386 51.1536 4.35938 51.1536 10.5455C51.1536 16.7038 54.9668 20.2585 60.008 20.2585C65.0215 20.2585 68.8624 16.7315 68.8624 10.5455ZM64.8092 10.5455C64.8092 14.5526 62.9072 16.7223 60.008 16.7223C57.0996 16.7223 55.2069 14.5526 55.2069 10.5455C55.2069 6.53835 57.0996 4.36861 60.008 4.36861C62.9072 4.36861 64.8092 6.53835 64.8092 10.5455ZM76.1513 11.8011C76.1605 9.97301 77.25 8.90199 78.8381 8.90199C80.4169 8.90199 81.3679 9.93608 81.3587 11.6719V20H85.2919V10.9702C85.2919 7.66477 83.353 5.63352 80.3984 5.63352C78.2933 5.63352 76.7699 6.66761 76.1328 8.32031H75.9666V5.81818H72.218V20H76.1513V11.8011ZM92.7931 1.09091H88.8599V20H92.7931V1.09091ZM96.4118 20H100.345V5.81818H96.4118V20ZM98.3877 3.99006C99.5603 3.99006 100.521 3.09446 100.521 1.99574C100.521 0.90625 99.5603 0.0106524 98.3877 0.0106524C97.2243 0.0106524 96.2641 0.90625 96.2641 1.99574C96.2641 3.09446 97.2243 3.99006 98.3877 3.99006ZM107.897 11.8011C107.906 9.97301 108.996 8.90199 110.584 8.90199C112.163 8.90199 113.114 9.93608 113.104 11.6719V20H117.038V10.9702C117.038 7.66477 115.099 5.63352 112.144 5.63352C110.039 5.63352 108.516 6.66761 107.879 8.32031H107.712V5.81818H103.964V20H107.897V11.8011ZM127.069 20.277C130.577 20.277 132.941 18.5689 133.495 15.9375L129.857 15.6974C129.46 16.7777 128.444 17.3409 127.133 17.3409C125.167 17.3409 123.92 16.0391 123.92 13.9247V13.9155H133.578V12.8352C133.578 8.01562 130.66 5.63352 126.912 5.63352C122.738 5.63352 120.033 8.5973 120.033 12.9737C120.033 17.4702 122.702 20.277 127.069 20.277ZM123.92 11.478C124.003 9.86222 125.231 8.5696 126.976 8.5696C128.685 8.5696 129.866 9.78835 129.876 11.478H123.92Z" fill="#2AD234"/>
</svg>
